<mxfile host="app.diagrams.net" modified="2020-09-01T07:01:49.510Z" agent="5.0 (Macintosh; Intel Mac OS X 10_15_6) AppleWebKit/537.36 (KHTML, like Gecko) Chrome/84.0.4147.135 Safari/537.36" etag="6WalEbeJRpFHlqQ6G1UI" version="13.6.5" type="github">
  <diagram id="O7KdUNqnnomx4mj4rPZV" name="第 1 页">
    <mxGraphModel dx="3389" dy="2183" grid="1" gridSize="10" guides="1" tooltips="1" connect="1" arrows="1" fold="1" page="1" pageScale="1" pageWidth="827" pageHeight="1169" math="0" shadow="0">
      <root>
        <mxCell id="0" />
        <mxCell id="1" parent="0" />
        <mxCell id="i3K5_ipFbrHlCx1D2kWV-36" value="" style="rounded=0;whiteSpace=wrap;html=1;" vertex="1" parent="1">
          <mxGeometry x="910" y="1060" width="740" height="170" as="geometry" />
        </mxCell>
        <mxCell id="i3K5_ipFbrHlCx1D2kWV-34" value="" style="rounded=0;whiteSpace=wrap;html=1;" vertex="1" parent="1">
          <mxGeometry x="930" y="770" width="500" height="270" as="geometry" />
        </mxCell>
        <mxCell id="i3K5_ipFbrHlCx1D2kWV-31" value="" style="rounded=0;whiteSpace=wrap;html=1;" vertex="1" parent="1">
          <mxGeometry x="870" y="555" width="530" height="185" as="geometry" />
        </mxCell>
        <mxCell id="i3K5_ipFbrHlCx1D2kWV-1" value="java注解" style="rounded=1;whiteSpace=wrap;html=1;" vertex="1" parent="1">
          <mxGeometry x="230" y="390" width="120" height="60" as="geometry" />
        </mxCell>
        <mxCell id="i3K5_ipFbrHlCx1D2kWV-5" value="" style="edgeStyle=orthogonalEdgeStyle;rounded=0;orthogonalLoop=1;jettySize=auto;html=1;" edge="1" parent="1" source="i3K5_ipFbrHlCx1D2kWV-2" target="i3K5_ipFbrHlCx1D2kWV-4">
          <mxGeometry relative="1" as="geometry" />
        </mxCell>
        <mxCell id="i3K5_ipFbrHlCx1D2kWV-6" value="构成" style="edgeLabel;html=1;align=center;verticalAlign=middle;resizable=0;points=[];" vertex="1" connectable="0" parent="i3K5_ipFbrHlCx1D2kWV-5">
          <mxGeometry x="-0.125" y="1" relative="1" as="geometry">
            <mxPoint as="offset" />
          </mxGeometry>
        </mxCell>
        <mxCell id="i3K5_ipFbrHlCx1D2kWV-2" value="一种特殊的标识符" style="rounded=0;whiteSpace=wrap;html=1;" vertex="1" parent="1">
          <mxGeometry x="440" y="250" width="120" height="60" as="geometry" />
        </mxCell>
        <mxCell id="i3K5_ipFbrHlCx1D2kWV-3" value="是什么" style="endArrow=classic;html=1;exitX=0.75;exitY=0;exitDx=0;exitDy=0;entryX=0;entryY=0.5;entryDx=0;entryDy=0;" edge="1" parent="1" source="i3K5_ipFbrHlCx1D2kWV-1" target="i3K5_ipFbrHlCx1D2kWV-2">
          <mxGeometry width="50" height="50" relative="1" as="geometry">
            <mxPoint x="410" y="420" as="sourcePoint" />
            <mxPoint x="460" y="370" as="targetPoint" />
          </mxGeometry>
        </mxCell>
        <mxCell id="i3K5_ipFbrHlCx1D2kWV-4" value="注解本身" style="whiteSpace=wrap;html=1;rounded=0;" vertex="1" parent="1">
          <mxGeometry x="440" y="390" width="120" height="60" as="geometry" />
        </mxCell>
        <mxCell id="i3K5_ipFbrHlCx1D2kWV-9" value="" style="rounded=0;orthogonalLoop=1;jettySize=auto;html=1;" edge="1" parent="1" source="i3K5_ipFbrHlCx1D2kWV-7" target="i3K5_ipFbrHlCx1D2kWV-8">
          <mxGeometry relative="1" as="geometry" />
        </mxCell>
        <mxCell id="i3K5_ipFbrHlCx1D2kWV-10" value="内置在代码中的注解" style="edgeLabel;html=1;align=center;verticalAlign=middle;resizable=0;points=[];" vertex="1" connectable="0" parent="i3K5_ipFbrHlCx1D2kWV-9">
          <mxGeometry x="-0.1111" y="-1" relative="1" as="geometry">
            <mxPoint as="offset" />
          </mxGeometry>
        </mxCell>
        <mxCell id="i3K5_ipFbrHlCx1D2kWV-7" value="内置注解" style="rounded=0;whiteSpace=wrap;html=1;" vertex="1" parent="1">
          <mxGeometry x="1121" y="140" width="120" height="60" as="geometry" />
        </mxCell>
        <mxCell id="i3K5_ipFbrHlCx1D2kWV-8" value="@Overwrite&amp;nbsp; 重写&lt;br&gt;@Deprecated 过期&lt;br&gt;@SuppressWarnings 抑制警告" style="rounded=0;whiteSpace=wrap;html=1;" vertex="1" parent="1">
          <mxGeometry x="690" y="370" width="230" height="180" as="geometry" />
        </mxCell>
        <mxCell id="i3K5_ipFbrHlCx1D2kWV-11" value="&lt;p&gt;&lt;font&gt;&lt;font style=&quot;font-size: 12px&quot;&gt;&lt;span style=&quot;color: rgb(51 , 51 , 51) ; text-align: left ; background-color: rgb(255 , 255 , 255)&quot;&gt;@Retention&amp;nbsp;&lt;/span&gt;&lt;span style=&quot;color: rgb(51 , 51 , 51) ; text-align: left ; background-color: rgb(255 , 255 , 255)&quot;&gt;标识这个注解怎么保存&lt;br&gt;&lt;/span&gt;&lt;/font&gt;&lt;/font&gt;&lt;ul style=&quot;border: 0px ; margin: 1em 0px ; padding: 0px ; line-height: 18.2px ; list-style: none ; color: rgb(51 , 51 , 51) ; background-color: rgb(255 , 255 , 255)&quot;&gt;&lt;li style=&quot;border: 0px ; margin: 0px 0px 1em 1em ; padding: 0px 0px 0px 1.2em ; line-height: 2em ; word-break: break-all ; background-image: url(&amp;#34;./assets/img/bullet@2x.png&amp;#34;) ; background-repeat: no-repeat ; background-position: left 0.4em ; list-style-type: none ; background-size: auto 8px&quot;&gt;&lt;font style=&quot;font-size: 12px&quot;&gt;@Documented - 标记这些注解是否包含在用户文档中。&lt;/font&gt;&lt;/li&gt;&lt;/ul&gt;&lt;ul style=&quot;border: 0px ; margin: 1em 0px ; padding: 0px ; line-height: 18.2px ; list-style: none ; color: rgb(51 , 51 , 51) ; background-color: rgb(255 , 255 , 255)&quot;&gt;&lt;li style=&quot;border: 0px ; margin: 0px 0px 1em 1em ; padding: 0px 0px 0px 1.2em ; line-height: 2em ; word-break: break-all ; background-image: url(&amp;#34;./assets/img/bullet@2x.png&amp;#34;) ; background-repeat: no-repeat ; background-position: left 0.4em ; list-style-type: none ; background-size: auto 8px&quot;&gt;&lt;font style=&quot;font-size: 12px&quot;&gt;@Target - 标记这个注解应该是哪种 Java 成员。&lt;/font&gt;&lt;/li&gt;&lt;/ul&gt;&lt;ul style=&quot;border: 0px ; margin: 1em 0px ; padding: 0px ; line-height: 18.2px ; list-style: none ; color: rgb(51 , 51 , 51) ; background-color: rgb(255 , 255 , 255)&quot;&gt;&lt;li style=&quot;border: 0px ; margin: 0px 0px 1em 1em ; padding: 0px 0px 0px 1.2em ; line-height: 2em ; word-break: break-all ; background-image: url(&amp;#34;./assets/img/bullet@2x.png&amp;#34;) ; background-repeat: no-repeat ; background-position: left 0.4em ; list-style-type: none ; background-size: auto 8px&quot;&gt;&lt;font style=&quot;font-size: 12px&quot;&gt;@Inherited - 标记这个注解是继承于哪个注解类(默认 注解并没有继承于任何子类)&lt;/font&gt;&lt;/li&gt;&lt;/ul&gt;&lt;/p&gt;&lt;font&gt;&lt;ul style=&quot;border: 0px ; margin: 1em 0px ; padding: 0px ; line-height: 18.2px ; list-style: none ; color: rgb(51 , 51 , 51) ; background-color: rgb(255 , 255 , 255)&quot;&gt;&lt;li&gt;&lt;/li&gt;&lt;li&gt;&lt;/li&gt;&lt;li style=&quot;font-family: &amp;#34;helvetica neue&amp;#34; , &amp;#34;helvetica&amp;#34; , &amp;#34;pingfang sc&amp;#34; , &amp;#34;hiragino sans gb&amp;#34; , &amp;#34;microsoft yahei&amp;#34; , &amp;#34;noto sans cjk sc&amp;#34; , &amp;#34;wenquanyi micro hei&amp;#34; , &amp;#34;arial&amp;#34; , sans-serif ; font-size: 13px&quot;&gt;&lt;/li&gt;&lt;/ul&gt;&lt;/font&gt;" style="rounded=0;whiteSpace=wrap;html=1;" vertex="1" parent="1">
          <mxGeometry x="960" y="370" width="350" height="180" as="geometry" />
        </mxCell>
        <mxCell id="i3K5_ipFbrHlCx1D2kWV-12" value="" style="endArrow=classic;html=1;exitX=0.75;exitY=1;exitDx=0;exitDy=0;" edge="1" parent="1" source="i3K5_ipFbrHlCx1D2kWV-7">
          <mxGeometry width="50" height="50" relative="1" as="geometry">
            <mxPoint x="590" y="410" as="sourcePoint" />
            <mxPoint x="1135" y="364" as="targetPoint" />
          </mxGeometry>
        </mxCell>
        <mxCell id="i3K5_ipFbrHlCx1D2kWV-13" value="元注解" style="edgeLabel;html=1;align=center;verticalAlign=middle;resizable=0;points=[];" vertex="1" connectable="0" parent="i3K5_ipFbrHlCx1D2kWV-12">
          <mxGeometry x="-0.2687" y="-1" relative="1" as="geometry">
            <mxPoint x="1" as="offset" />
          </mxGeometry>
        </mxCell>
        <mxCell id="i3K5_ipFbrHlCx1D2kWV-14" value="&lt;ul style=&quot;border: 0px ; margin: 1em 0px ; padding: 0px ; line-height: 18.2px ; list-style: none ; color: rgb(51 , 51 , 51) ; background-color: rgb(255 , 255 , 255)&quot;&gt;&lt;li style=&quot;border: 0px ; margin: 0px 0px 1em 1em ; padding: 0px 0px 0px 1.2em ; line-height: 2em ; word-break: break-all ; background-image: url(&amp;#34;./assets/img/bullet@2x.png&amp;#34;) ; background-repeat: no-repeat ; background-position: left 0.4em ; list-style-type: none ; background-size: auto 8px&quot;&gt;&lt;font style=&quot;font-size: 12px&quot;&gt;@SafeVarargs - Java 7 开始支持，忽略任何使用参数为泛型变量的方法或构造函数调用产生的警告。&lt;/font&gt;&lt;/li&gt;&lt;li style=&quot;border: 0px ; margin: 0px 0px 1em 1em ; padding: 0px 0px 0px 1.2em ; line-height: 2em ; word-break: break-all ; background-image: url(&amp;#34;./assets/img/bullet@2x.png&amp;#34;) ; background-repeat: no-repeat ; background-position: left 0.4em ; list-style-type: none ; background-size: auto 8px&quot;&gt;&lt;font style=&quot;font-size: 12px&quot;&gt;@FunctionalInterface - Java 8 开始支持，标识一个匿名函数或函数式接口。&lt;/font&gt;&lt;/li&gt;&lt;li style=&quot;border: 0px ; margin: 0px 0px 1em 1em ; padding: 0px 0px 0px 1.2em ; line-height: 2em ; word-break: break-all ; background-image: url(&amp;#34;./assets/img/bullet@2x.png&amp;#34;) ; background-repeat: no-repeat ; background-position: left 0.4em ; list-style-type: none ; background-size: auto 8px&quot;&gt;&lt;font style=&quot;font-size: 12px&quot;&gt;@Repeatable - Java 8 开始支持，标识某注解可以在同一个声明上使用多次。&lt;/font&gt;&lt;/li&gt;&lt;/ul&gt;" style="rounded=0;whiteSpace=wrap;html=1;" vertex="1" parent="1">
          <mxGeometry x="1370" y="370" width="320" height="180" as="geometry" />
        </mxCell>
        <mxCell id="i3K5_ipFbrHlCx1D2kWV-15" value="" style="endArrow=classic;html=1;entryX=0.37;entryY=0;entryDx=0;entryDy=0;entryPerimeter=0;" edge="1" parent="1" source="i3K5_ipFbrHlCx1D2kWV-7" target="i3K5_ipFbrHlCx1D2kWV-14">
          <mxGeometry width="50" height="50" relative="1" as="geometry">
            <mxPoint x="1120" y="300" as="sourcePoint" />
            <mxPoint x="1170" y="250" as="targetPoint" />
          </mxGeometry>
        </mxCell>
        <mxCell id="i3K5_ipFbrHlCx1D2kWV-16" value="&lt;span style=&quot;color: rgb(51 , 51 , 51) ; font-family: &amp;#34;helvetica neue&amp;#34; , &amp;#34;helvetica&amp;#34; , &amp;#34;pingfang sc&amp;#34; , &amp;#34;hiragino sans gb&amp;#34; , &amp;#34;microsoft yahei&amp;#34; , &amp;#34;noto sans cjk sc&amp;#34; , &amp;#34;wenquanyi micro hei&amp;#34; , &amp;#34;arial&amp;#34; , sans-serif ; font-size: 14px&quot;&gt;&amp;nbsp;Java 7 开始，额外添加了 3 个注解&lt;/span&gt;" style="edgeLabel;html=1;align=center;verticalAlign=middle;resizable=0;points=[];" vertex="1" connectable="0" parent="i3K5_ipFbrHlCx1D2kWV-15">
          <mxGeometry x="-0.2132" y="1" relative="1" as="geometry">
            <mxPoint as="offset" />
          </mxGeometry>
        </mxCell>
        <mxCell id="i3K5_ipFbrHlCx1D2kWV-17" value="" style="endArrow=classic;html=1;exitX=1;exitY=0.25;exitDx=0;exitDy=0;" edge="1" parent="1" source="i3K5_ipFbrHlCx1D2kWV-4">
          <mxGeometry width="50" height="50" relative="1" as="geometry">
            <mxPoint x="800" y="520" as="sourcePoint" />
            <mxPoint x="1110" y="160" as="targetPoint" />
          </mxGeometry>
        </mxCell>
        <mxCell id="i3K5_ipFbrHlCx1D2kWV-18" value="三种主干类" style="rounded=0;whiteSpace=wrap;html=1;" vertex="1" parent="1">
          <mxGeometry x="460" y="670" width="120" height="60" as="geometry" />
        </mxCell>
        <mxCell id="i3K5_ipFbrHlCx1D2kWV-19" value="" style="endArrow=classic;html=1;" edge="1" parent="1" source="i3K5_ipFbrHlCx1D2kWV-1" target="i3K5_ipFbrHlCx1D2kWV-18">
          <mxGeometry width="50" height="50" relative="1" as="geometry">
            <mxPoint x="370" y="470" as="sourcePoint" />
            <mxPoint x="830" y="550" as="targetPoint" />
          </mxGeometry>
        </mxCell>
        <mxCell id="i3K5_ipFbrHlCx1D2kWV-20" value="&lt;span style=&quot;font-size: 12px ; background-color: rgb(248 , 249 , 250)&quot;&gt;组成部分&lt;/span&gt;" style="edgeLabel;html=1;align=center;verticalAlign=middle;resizable=0;points=[];" vertex="1" connectable="0" parent="i3K5_ipFbrHlCx1D2kWV-19">
          <mxGeometry x="-0.1933" y="-2" relative="1" as="geometry">
            <mxPoint as="offset" />
          </mxGeometry>
        </mxCell>
        <mxCell id="i3K5_ipFbrHlCx1D2kWV-21" value="&lt;h2 class=&quot;example&quot; style=&quot;border: 0px ; margin: 0px 0px 2px ; padding: 0px ; line-height: 1.8em ; color: rgb(97 , 127 , 16) ; background-color: transparent ; font-family: &amp;#34;helvetica neue&amp;#34; , &amp;#34;helvetica&amp;#34; , &amp;#34;pingfang sc&amp;#34; , &amp;#34;hiragino sans gb&amp;#34; , &amp;#34;microsoft yahei&amp;#34; , &amp;#34;noto sans cjk sc&amp;#34; , &amp;#34;wenquanyi micro hei&amp;#34; , &amp;#34;arial&amp;#34; , sans-serif&quot;&gt;&lt;font style=&quot;font-size: 12px&quot;&gt;Annotation.java&lt;/font&gt;&lt;/h2&gt;" style="rounded=1;whiteSpace=wrap;html=1;" vertex="1" parent="1">
          <mxGeometry x="680" y="600" width="120" height="60" as="geometry" />
        </mxCell>
        <mxCell id="i3K5_ipFbrHlCx1D2kWV-22" value="&lt;h2 class=&quot;example&quot; style=&quot;border: 0px ; margin: 0px 0px 2px ; padding: 0px ; line-height: 1.8em ; color: rgb(97 , 127 , 16) ; background-color: transparent ; font-family: &amp;#34;helvetica neue&amp;#34; , &amp;#34;helvetica&amp;#34; , &amp;#34;pingfang sc&amp;#34; , &amp;#34;hiragino sans gb&amp;#34; , &amp;#34;microsoft yahei&amp;#34; , &amp;#34;noto sans cjk sc&amp;#34; , &amp;#34;wenquanyi micro hei&amp;#34; , &amp;#34;arial&amp;#34; , sans-serif&quot;&gt;&lt;font style=&quot;font-size: 12px&quot;&gt;ElementType.java&lt;/font&gt;&lt;/h2&gt;" style="rounded=1;whiteSpace=wrap;html=1;" vertex="1" parent="1">
          <mxGeometry x="680" y="820" width="120" height="60" as="geometry" />
        </mxCell>
        <mxCell id="i3K5_ipFbrHlCx1D2kWV-23" value="&lt;h2 class=&quot;example&quot; style=&quot;border: 0px ; margin: 0px 0px 2px ; padding: 0px ; line-height: 1.8em ; color: rgb(97 , 127 , 16) ; background-color: transparent ; font-family: &amp;#34;helvetica neue&amp;#34; , &amp;#34;helvetica&amp;#34; , &amp;#34;pingfang sc&amp;#34; , &amp;#34;hiragino sans gb&amp;#34; , &amp;#34;microsoft yahei&amp;#34; , &amp;#34;noto sans cjk sc&amp;#34; , &amp;#34;wenquanyi micro hei&amp;#34; , &amp;#34;arial&amp;#34; , sans-serif&quot;&gt;&lt;font style=&quot;font-size: 12px&quot;&gt;RetentionPolicy.java&lt;/font&gt;&lt;/h2&gt;" style="rounded=1;whiteSpace=wrap;html=1;" vertex="1" parent="1">
          <mxGeometry x="670" y="990" width="120" height="60" as="geometry" />
        </mxCell>
        <mxCell id="i3K5_ipFbrHlCx1D2kWV-24" value="" style="endArrow=classic;html=1;entryX=0;entryY=0.75;entryDx=0;entryDy=0;" edge="1" parent="1" source="i3K5_ipFbrHlCx1D2kWV-18" target="i3K5_ipFbrHlCx1D2kWV-21">
          <mxGeometry width="50" height="50" relative="1" as="geometry">
            <mxPoint x="750" y="740" as="sourcePoint" />
            <mxPoint x="800" y="690" as="targetPoint" />
          </mxGeometry>
        </mxCell>
        <mxCell id="i3K5_ipFbrHlCx1D2kWV-25" value="" style="endArrow=classic;html=1;entryX=-0.033;entryY=0.367;entryDx=0;entryDy=0;exitX=1;exitY=0.5;exitDx=0;exitDy=0;entryPerimeter=0;" edge="1" parent="1" source="i3K5_ipFbrHlCx1D2kWV-18" target="i3K5_ipFbrHlCx1D2kWV-22">
          <mxGeometry width="50" height="50" relative="1" as="geometry">
            <mxPoint x="590" y="695" as="sourcePoint" />
            <mxPoint x="670" y="675" as="targetPoint" />
          </mxGeometry>
        </mxCell>
        <mxCell id="i3K5_ipFbrHlCx1D2kWV-26" value="" style="endArrow=classic;html=1;entryX=0;entryY=0.5;entryDx=0;entryDy=0;" edge="1" parent="1" source="i3K5_ipFbrHlCx1D2kWV-18" target="i3K5_ipFbrHlCx1D2kWV-23">
          <mxGeometry width="50" height="50" relative="1" as="geometry">
            <mxPoint x="590" y="710" as="sourcePoint" />
            <mxPoint x="666.04" y="782.02" as="targetPoint" />
          </mxGeometry>
        </mxCell>
        <mxCell id="i3K5_ipFbrHlCx1D2kWV-29" value="&lt;div&gt;package java.lang.annotation;&lt;/div&gt;&lt;div&gt;public interface Annotation {&lt;/div&gt;&lt;div&gt;&lt;br&gt;&lt;/div&gt;&lt;div&gt;&amp;nbsp; &amp;nbsp; boolean equals(Object obj);&lt;/div&gt;&lt;div&gt;&lt;br&gt;&lt;/div&gt;&lt;div&gt;&amp;nbsp; &amp;nbsp; int hashCode();&lt;/div&gt;&lt;div&gt;&lt;br&gt;&lt;/div&gt;&lt;div&gt;&amp;nbsp; &amp;nbsp; String toString();&lt;/div&gt;&lt;div&gt;&lt;br&gt;&lt;/div&gt;&lt;div&gt;&amp;nbsp; &amp;nbsp; Class&amp;lt;? extends Annotation&amp;gt; annotationType();&lt;/div&gt;&lt;div&gt;}&lt;/div&gt;" style="text;html=1;strokeColor=none;fillColor=none;align=left;verticalAlign=middle;whiteSpace=wrap;rounded=0;" vertex="1" parent="1">
          <mxGeometry x="885" y="570" width="500" height="150" as="geometry" />
        </mxCell>
        <mxCell id="i3K5_ipFbrHlCx1D2kWV-30" value="" style="endArrow=classic;html=1;exitX=1;exitY=0.75;exitDx=0;exitDy=0;" edge="1" parent="1" source="i3K5_ipFbrHlCx1D2kWV-21" target="i3K5_ipFbrHlCx1D2kWV-29">
          <mxGeometry width="50" height="50" relative="1" as="geometry">
            <mxPoint x="750" y="660" as="sourcePoint" />
            <mxPoint x="800" y="610" as="targetPoint" />
          </mxGeometry>
        </mxCell>
        <mxCell id="i3K5_ipFbrHlCx1D2kWV-32" value="&lt;font style=&quot;font-size: 12px&quot;&gt;&lt;span style=&quot;border: 0px ; margin: 0px ; padding: 0px ; font-family: &amp;#34;menlo&amp;#34; , &amp;#34;monaco&amp;#34; , &amp;#34;consolas&amp;#34; , &amp;#34;andale mono&amp;#34; , &amp;#34;lucida console&amp;#34; , &amp;#34;courier new&amp;#34; , monospace ; font-weight: bold&quot;&gt;package&lt;/span&gt;&lt;span style=&quot;font-family: &amp;#34;menlo&amp;#34; , &amp;#34;monaco&amp;#34; , &amp;#34;consolas&amp;#34; , &amp;#34;andale mono&amp;#34; , &amp;#34;lucida console&amp;#34; , &amp;#34;courier new&amp;#34; , monospace ; background-color: rgb(255 , 255 , 255)&quot;&gt;&amp;nbsp;&lt;/span&gt;&lt;span style=&quot;border: 0px ; margin: 0px ; padding: 0px ; font-family: &amp;#34;menlo&amp;#34; , &amp;#34;monaco&amp;#34; , &amp;#34;consolas&amp;#34; , &amp;#34;andale mono&amp;#34; , &amp;#34;lucida console&amp;#34; , &amp;#34;courier new&amp;#34; , monospace ; color: rgb(0 , 102 , 153)&quot;&gt;java.lang.annotation&lt;/span&gt;&lt;span style=&quot;border: 0px ; margin: 0px ; padding: 0px ; font-family: &amp;#34;menlo&amp;#34; , &amp;#34;monaco&amp;#34; , &amp;#34;consolas&amp;#34; , &amp;#34;andale mono&amp;#34; , &amp;#34;lucida console&amp;#34; , &amp;#34;courier new&amp;#34; , monospace ; color: rgb(51 , 153 , 51)&quot;&gt;;&lt;/span&gt;&lt;br style=&quot;font-family: &amp;#34;menlo&amp;#34; , &amp;#34;monaco&amp;#34; , &amp;#34;consolas&amp;#34; , &amp;#34;andale mono&amp;#34; , &amp;#34;lucida console&amp;#34; , &amp;#34;courier new&amp;#34; , monospace&quot;&gt;&lt;br style=&quot;font-family: &amp;#34;menlo&amp;#34; , &amp;#34;monaco&amp;#34; , &amp;#34;consolas&amp;#34; , &amp;#34;andale mono&amp;#34; , &amp;#34;lucida console&amp;#34; , &amp;#34;courier new&amp;#34; , monospace&quot;&gt;&lt;span style=&quot;border: 0px ; margin: 0px ; padding: 0px ; font-family: &amp;#34;menlo&amp;#34; , &amp;#34;monaco&amp;#34; , &amp;#34;consolas&amp;#34; , &amp;#34;andale mono&amp;#34; , &amp;#34;lucida console&amp;#34; , &amp;#34;courier new&amp;#34; , monospace ; font-weight: bold&quot;&gt;public&lt;/span&gt;&lt;span style=&quot;font-family: &amp;#34;menlo&amp;#34; , &amp;#34;monaco&amp;#34; , &amp;#34;consolas&amp;#34; , &amp;#34;andale mono&amp;#34; , &amp;#34;lucida console&amp;#34; , &amp;#34;courier new&amp;#34; , monospace ; background-color: rgb(255 , 255 , 255)&quot;&gt;&amp;nbsp;&lt;/span&gt;&lt;span style=&quot;border: 0px ; margin: 0px ; padding: 0px ; font-family: &amp;#34;menlo&amp;#34; , &amp;#34;monaco&amp;#34; , &amp;#34;consolas&amp;#34; , &amp;#34;andale mono&amp;#34; , &amp;#34;lucida console&amp;#34; , &amp;#34;courier new&amp;#34; , monospace ; font-weight: bold&quot;&gt;enum&lt;/span&gt;&lt;span style=&quot;font-family: &amp;#34;menlo&amp;#34; , &amp;#34;monaco&amp;#34; , &amp;#34;consolas&amp;#34; , &amp;#34;andale mono&amp;#34; , &amp;#34;lucida console&amp;#34; , &amp;#34;courier new&amp;#34; , monospace ; background-color: rgb(255 , 255 , 255)&quot;&gt;&amp;nbsp;ElementType&amp;nbsp;&lt;/span&gt;&lt;span style=&quot;border: 0px ; margin: 0px ; padding: 0px ; font-family: &amp;#34;menlo&amp;#34; , &amp;#34;monaco&amp;#34; , &amp;#34;consolas&amp;#34; , &amp;#34;andale mono&amp;#34; , &amp;#34;lucida console&amp;#34; , &amp;#34;courier new&amp;#34; , monospace ; color: rgb(0 , 153 , 0)&quot;&gt;{&lt;/span&gt;&lt;br style=&quot;font-family: &amp;#34;menlo&amp;#34; , &amp;#34;monaco&amp;#34; , &amp;#34;consolas&amp;#34; , &amp;#34;andale mono&amp;#34; , &amp;#34;lucida console&amp;#34; , &amp;#34;courier new&amp;#34; , monospace&quot;&gt;&lt;span style=&quot;font-family: &amp;#34;menlo&amp;#34; , &amp;#34;monaco&amp;#34; , &amp;#34;consolas&amp;#34; , &amp;#34;andale mono&amp;#34; , &amp;#34;lucida console&amp;#34; , &amp;#34;courier new&amp;#34; , monospace ; background-color: rgb(255 , 255 , 255)&quot;&gt;&amp;nbsp; &amp;nbsp; TYPE, &amp;nbsp; &amp;nbsp; &amp;nbsp; &amp;nbsp; &amp;nbsp; &amp;nbsp; &amp;nbsp;&amp;nbsp;&lt;/span&gt;&lt;span style=&quot;border: 0px ; margin: 0px ; padding: 0px ; font-family: &amp;#34;menlo&amp;#34; , &amp;#34;monaco&amp;#34; , &amp;#34;consolas&amp;#34; , &amp;#34;andale mono&amp;#34; , &amp;#34;lucida console&amp;#34; , &amp;#34;courier new&amp;#34; , monospace ; color: rgb(102 , 102 , 102) ; font-style: italic&quot;&gt;/* 类、接口（包括注释类型）或枚举声明 &amp;nbsp;*/&lt;/span&gt;&lt;br style=&quot;font-family: &amp;#34;menlo&amp;#34; , &amp;#34;monaco&amp;#34; , &amp;#34;consolas&amp;#34; , &amp;#34;andale mono&amp;#34; , &amp;#34;lucida console&amp;#34; , &amp;#34;courier new&amp;#34; , monospace&quot;&gt;&lt;br style=&quot;font-family: &amp;#34;menlo&amp;#34; , &amp;#34;monaco&amp;#34; , &amp;#34;consolas&amp;#34; , &amp;#34;andale mono&amp;#34; , &amp;#34;lucida console&amp;#34; , &amp;#34;courier new&amp;#34; , monospace&quot;&gt;&lt;span style=&quot;font-family: &amp;#34;menlo&amp;#34; , &amp;#34;monaco&amp;#34; , &amp;#34;consolas&amp;#34; , &amp;#34;andale mono&amp;#34; , &amp;#34;lucida console&amp;#34; , &amp;#34;courier new&amp;#34; , monospace ; background-color: rgb(255 , 255 , 255)&quot;&gt;&amp;nbsp; &amp;nbsp; FIELD, &amp;nbsp; &amp;nbsp; &amp;nbsp; &amp;nbsp; &amp;nbsp; &amp;nbsp; &amp;nbsp;&lt;/span&gt;&lt;span style=&quot;border: 0px ; margin: 0px ; padding: 0px ; font-family: &amp;#34;menlo&amp;#34; , &amp;#34;monaco&amp;#34; , &amp;#34;consolas&amp;#34; , &amp;#34;andale mono&amp;#34; , &amp;#34;lucida console&amp;#34; , &amp;#34;courier new&amp;#34; , monospace ; color: rgb(102 , 102 , 102) ; font-style: italic&quot;&gt;/* 字段声明（包括枚举常量） &amp;nbsp;*/&lt;/span&gt;&lt;br style=&quot;font-family: &amp;#34;menlo&amp;#34; , &amp;#34;monaco&amp;#34; , &amp;#34;consolas&amp;#34; , &amp;#34;andale mono&amp;#34; , &amp;#34;lucida console&amp;#34; , &amp;#34;courier new&amp;#34; , monospace&quot;&gt;&lt;br style=&quot;font-family: &amp;#34;menlo&amp;#34; , &amp;#34;monaco&amp;#34; , &amp;#34;consolas&amp;#34; , &amp;#34;andale mono&amp;#34; , &amp;#34;lucida console&amp;#34; , &amp;#34;courier new&amp;#34; , monospace&quot;&gt;&lt;span style=&quot;font-family: &amp;#34;menlo&amp;#34; , &amp;#34;monaco&amp;#34; , &amp;#34;consolas&amp;#34; , &amp;#34;andale mono&amp;#34; , &amp;#34;lucida console&amp;#34; , &amp;#34;courier new&amp;#34; , monospace ; background-color: rgb(255 , 255 , 255)&quot;&gt;&amp;nbsp; &amp;nbsp; METHOD, &amp;nbsp; &amp;nbsp; &amp;nbsp; &amp;nbsp; &amp;nbsp; &amp;nbsp;&amp;nbsp;&lt;/span&gt;&lt;span style=&quot;border: 0px ; margin: 0px ; padding: 0px ; font-family: &amp;#34;menlo&amp;#34; , &amp;#34;monaco&amp;#34; , &amp;#34;consolas&amp;#34; , &amp;#34;andale mono&amp;#34; , &amp;#34;lucida console&amp;#34; , &amp;#34;courier new&amp;#34; , monospace ; color: rgb(102 , 102 , 102) ; font-style: italic&quot;&gt;/* 方法声明 &amp;nbsp;*/&lt;/span&gt;&lt;br style=&quot;font-family: &amp;#34;menlo&amp;#34; , &amp;#34;monaco&amp;#34; , &amp;#34;consolas&amp;#34; , &amp;#34;andale mono&amp;#34; , &amp;#34;lucida console&amp;#34; , &amp;#34;courier new&amp;#34; , monospace&quot;&gt;&lt;br style=&quot;font-family: &amp;#34;menlo&amp;#34; , &amp;#34;monaco&amp;#34; , &amp;#34;consolas&amp;#34; , &amp;#34;andale mono&amp;#34; , &amp;#34;lucida console&amp;#34; , &amp;#34;courier new&amp;#34; , monospace&quot;&gt;&lt;span style=&quot;font-family: &amp;#34;menlo&amp;#34; , &amp;#34;monaco&amp;#34; , &amp;#34;consolas&amp;#34; , &amp;#34;andale mono&amp;#34; , &amp;#34;lucida console&amp;#34; , &amp;#34;courier new&amp;#34; , monospace ; background-color: rgb(255 , 255 , 255)&quot;&gt;&amp;nbsp; &amp;nbsp; PARAMETER, &amp;nbsp; &amp;nbsp; &amp;nbsp; &amp;nbsp; &amp;nbsp;&lt;/span&gt;&lt;span style=&quot;border: 0px ; margin: 0px ; padding: 0px ; font-family: &amp;#34;menlo&amp;#34; , &amp;#34;monaco&amp;#34; , &amp;#34;consolas&amp;#34; , &amp;#34;andale mono&amp;#34; , &amp;#34;lucida console&amp;#34; , &amp;#34;courier new&amp;#34; , monospace ; color: rgb(102 , 102 , 102) ; font-style: italic&quot;&gt;/* 参数声明 &amp;nbsp;*/&lt;/span&gt;&lt;br style=&quot;font-family: &amp;#34;menlo&amp;#34; , &amp;#34;monaco&amp;#34; , &amp;#34;consolas&amp;#34; , &amp;#34;andale mono&amp;#34; , &amp;#34;lucida console&amp;#34; , &amp;#34;courier new&amp;#34; , monospace&quot;&gt;&lt;br style=&quot;font-family: &amp;#34;menlo&amp;#34; , &amp;#34;monaco&amp;#34; , &amp;#34;consolas&amp;#34; , &amp;#34;andale mono&amp;#34; , &amp;#34;lucida console&amp;#34; , &amp;#34;courier new&amp;#34; , monospace&quot;&gt;&lt;span style=&quot;font-family: &amp;#34;menlo&amp;#34; , &amp;#34;monaco&amp;#34; , &amp;#34;consolas&amp;#34; , &amp;#34;andale mono&amp;#34; , &amp;#34;lucida console&amp;#34; , &amp;#34;courier new&amp;#34; , monospace ; background-color: rgb(255 , 255 , 255)&quot;&gt;&amp;nbsp; &amp;nbsp; CONSTRUCTOR, &amp;nbsp; &amp;nbsp; &amp;nbsp; &amp;nbsp;&lt;/span&gt;&lt;span style=&quot;border: 0px ; margin: 0px ; padding: 0px ; font-family: &amp;#34;menlo&amp;#34; , &amp;#34;monaco&amp;#34; , &amp;#34;consolas&amp;#34; , &amp;#34;andale mono&amp;#34; , &amp;#34;lucida console&amp;#34; , &amp;#34;courier new&amp;#34; , monospace ; color: rgb(102 , 102 , 102) ; font-style: italic&quot;&gt;/* 构造方法声明 &amp;nbsp;*/&lt;/span&gt;&lt;br style=&quot;font-family: &amp;#34;menlo&amp;#34; , &amp;#34;monaco&amp;#34; , &amp;#34;consolas&amp;#34; , &amp;#34;andale mono&amp;#34; , &amp;#34;lucida console&amp;#34; , &amp;#34;courier new&amp;#34; , monospace&quot;&gt;&lt;br style=&quot;font-family: &amp;#34;menlo&amp;#34; , &amp;#34;monaco&amp;#34; , &amp;#34;consolas&amp;#34; , &amp;#34;andale mono&amp;#34; , &amp;#34;lucida console&amp;#34; , &amp;#34;courier new&amp;#34; , monospace&quot;&gt;&lt;span style=&quot;font-family: &amp;#34;menlo&amp;#34; , &amp;#34;monaco&amp;#34; , &amp;#34;consolas&amp;#34; , &amp;#34;andale mono&amp;#34; , &amp;#34;lucida console&amp;#34; , &amp;#34;courier new&amp;#34; , monospace ; background-color: rgb(255 , 255 , 255)&quot;&gt;&amp;nbsp; &amp;nbsp; LOCAL_VARIABLE, &amp;nbsp; &amp;nbsp;&amp;nbsp;&lt;/span&gt;&lt;span style=&quot;border: 0px ; margin: 0px ; padding: 0px ; font-family: &amp;#34;menlo&amp;#34; , &amp;#34;monaco&amp;#34; , &amp;#34;consolas&amp;#34; , &amp;#34;andale mono&amp;#34; , &amp;#34;lucida console&amp;#34; , &amp;#34;courier new&amp;#34; , monospace ; color: rgb(102 , 102 , 102) ; font-style: italic&quot;&gt;/* 局部变量声明 &amp;nbsp;*/&lt;/span&gt;&lt;br style=&quot;font-family: &amp;#34;menlo&amp;#34; , &amp;#34;monaco&amp;#34; , &amp;#34;consolas&amp;#34; , &amp;#34;andale mono&amp;#34; , &amp;#34;lucida console&amp;#34; , &amp;#34;courier new&amp;#34; , monospace&quot;&gt;&lt;br style=&quot;font-family: &amp;#34;menlo&amp;#34; , &amp;#34;monaco&amp;#34; , &amp;#34;consolas&amp;#34; , &amp;#34;andale mono&amp;#34; , &amp;#34;lucida console&amp;#34; , &amp;#34;courier new&amp;#34; , monospace&quot;&gt;&lt;span style=&quot;font-family: &amp;#34;menlo&amp;#34; , &amp;#34;monaco&amp;#34; , &amp;#34;consolas&amp;#34; , &amp;#34;andale mono&amp;#34; , &amp;#34;lucida console&amp;#34; , &amp;#34;courier new&amp;#34; , monospace ; background-color: rgb(255 , 255 , 255)&quot;&gt;&amp;nbsp; &amp;nbsp; ANNOTATION_TYPE, &amp;nbsp; &amp;nbsp;&lt;/span&gt;&lt;span style=&quot;border: 0px ; margin: 0px ; padding: 0px ; font-family: &amp;#34;menlo&amp;#34; , &amp;#34;monaco&amp;#34; , &amp;#34;consolas&amp;#34; , &amp;#34;andale mono&amp;#34; , &amp;#34;lucida console&amp;#34; , &amp;#34;courier new&amp;#34; , monospace ; color: rgb(102 , 102 , 102) ; font-style: italic&quot;&gt;/* 注释类型声明 &amp;nbsp;*/&lt;/span&gt;&lt;br style=&quot;font-family: &amp;#34;menlo&amp;#34; , &amp;#34;monaco&amp;#34; , &amp;#34;consolas&amp;#34; , &amp;#34;andale mono&amp;#34; , &amp;#34;lucida console&amp;#34; , &amp;#34;courier new&amp;#34; , monospace&quot;&gt;&lt;br style=&quot;font-family: &amp;#34;menlo&amp;#34; , &amp;#34;monaco&amp;#34; , &amp;#34;consolas&amp;#34; , &amp;#34;andale mono&amp;#34; , &amp;#34;lucida console&amp;#34; , &amp;#34;courier new&amp;#34; , monospace&quot;&gt;&lt;span style=&quot;font-family: &amp;#34;menlo&amp;#34; , &amp;#34;monaco&amp;#34; , &amp;#34;consolas&amp;#34; , &amp;#34;andale mono&amp;#34; , &amp;#34;lucida console&amp;#34; , &amp;#34;courier new&amp;#34; , monospace ; background-color: rgb(255 , 255 , 255)&quot;&gt;&amp;nbsp; &amp;nbsp;&amp;nbsp;&lt;/span&gt;&lt;span style=&quot;border: 0px ; margin: 0px ; padding: 0px ; font-family: &amp;#34;menlo&amp;#34; , &amp;#34;monaco&amp;#34; , &amp;#34;consolas&amp;#34; , &amp;#34;andale mono&amp;#34; , &amp;#34;lucida console&amp;#34; , &amp;#34;courier new&amp;#34; , monospace ; font-weight: bold&quot;&gt;PACKAGE&lt;/span&gt;&lt;span style=&quot;font-family: &amp;#34;menlo&amp;#34; , &amp;#34;monaco&amp;#34; , &amp;#34;consolas&amp;#34; , &amp;#34;andale mono&amp;#34; , &amp;#34;lucida console&amp;#34; , &amp;#34;courier new&amp;#34; , monospace ; background-color: rgb(255 , 255 , 255)&quot;&gt;&amp;nbsp;&amp;nbsp; &amp;nbsp; &amp;nbsp; &amp;nbsp; &amp;nbsp; &amp;nbsp;&amp;nbsp;&lt;/span&gt;&lt;span style=&quot;border: 0px ; margin: 0px ; padding: 0px ; font-family: &amp;#34;menlo&amp;#34; , &amp;#34;monaco&amp;#34; , &amp;#34;consolas&amp;#34; , &amp;#34;andale mono&amp;#34; , &amp;#34;lucida console&amp;#34; , &amp;#34;courier new&amp;#34; , monospace ; color: rgb(102 , 102 , 102) ; font-style: italic&quot;&gt;/* 包声明 &amp;nbsp;*/&lt;/span&gt;&lt;br style=&quot;font-family: &amp;#34;menlo&amp;#34; , &amp;#34;monaco&amp;#34; , &amp;#34;consolas&amp;#34; , &amp;#34;andale mono&amp;#34; , &amp;#34;lucida console&amp;#34; , &amp;#34;courier new&amp;#34; , monospace&quot;&gt;&lt;span style=&quot;border: 0px ; margin: 0px ; padding: 0px ; font-family: &amp;#34;menlo&amp;#34; , &amp;#34;monaco&amp;#34; , &amp;#34;consolas&amp;#34; , &amp;#34;andale mono&amp;#34; , &amp;#34;lucida console&amp;#34; , &amp;#34;courier new&amp;#34; , monospace ; color: rgb(0 , 153 , 0)&quot;&gt;}&lt;/span&gt;&lt;/font&gt;" style="text;html=1;align=left;verticalAlign=middle;resizable=0;points=[];autosize=1;" vertex="1" parent="1">
          <mxGeometry x="960" y="770" width="440" height="270" as="geometry" />
        </mxCell>
        <mxCell id="i3K5_ipFbrHlCx1D2kWV-33" value="" style="endArrow=classic;html=1;exitX=1;exitY=0.5;exitDx=0;exitDy=0;" edge="1" parent="1" source="i3K5_ipFbrHlCx1D2kWV-22">
          <mxGeometry width="50" height="50" relative="1" as="geometry">
            <mxPoint x="830" y="830" as="sourcePoint" />
            <mxPoint x="910" y="880" as="targetPoint" />
          </mxGeometry>
        </mxCell>
        <mxCell id="i3K5_ipFbrHlCx1D2kWV-35" value="&lt;font style=&quot;font-size: 12px&quot;&gt;&lt;span style=&quot;border: 0px ; margin: 0px ; padding: 0px ; font-family: &amp;#34;menlo&amp;#34; , &amp;#34;monaco&amp;#34; , &amp;#34;consolas&amp;#34; , &amp;#34;andale mono&amp;#34; , &amp;#34;lucida console&amp;#34; , &amp;#34;courier new&amp;#34; , monospace ; font-weight: bold&quot;&gt;package&lt;/span&gt;&lt;span style=&quot;font-family: &amp;#34;menlo&amp;#34; , &amp;#34;monaco&amp;#34; , &amp;#34;consolas&amp;#34; , &amp;#34;andale mono&amp;#34; , &amp;#34;lucida console&amp;#34; , &amp;#34;courier new&amp;#34; , monospace ; background-color: rgb(255 , 255 , 255)&quot;&gt;&amp;nbsp;&lt;/span&gt;&lt;span style=&quot;border: 0px ; margin: 0px ; padding: 0px ; font-family: &amp;#34;menlo&amp;#34; , &amp;#34;monaco&amp;#34; , &amp;#34;consolas&amp;#34; , &amp;#34;andale mono&amp;#34; , &amp;#34;lucida console&amp;#34; , &amp;#34;courier new&amp;#34; , monospace ; color: rgb(0 , 102 , 153)&quot;&gt;java.lang.annotation&lt;/span&gt;&lt;span style=&quot;border: 0px ; margin: 0px ; padding: 0px ; font-family: &amp;#34;menlo&amp;#34; , &amp;#34;monaco&amp;#34; , &amp;#34;consolas&amp;#34; , &amp;#34;andale mono&amp;#34; , &amp;#34;lucida console&amp;#34; , &amp;#34;courier new&amp;#34; , monospace ; color: rgb(51 , 153 , 51)&quot;&gt;;&lt;/span&gt;&lt;br style=&quot;font-family: &amp;#34;menlo&amp;#34; , &amp;#34;monaco&amp;#34; , &amp;#34;consolas&amp;#34; , &amp;#34;andale mono&amp;#34; , &amp;#34;lucida console&amp;#34; , &amp;#34;courier new&amp;#34; , monospace&quot;&gt;&lt;span style=&quot;border: 0px ; margin: 0px ; padding: 0px ; font-family: &amp;#34;menlo&amp;#34; , &amp;#34;monaco&amp;#34; , &amp;#34;consolas&amp;#34; , &amp;#34;andale mono&amp;#34; , &amp;#34;lucida console&amp;#34; , &amp;#34;courier new&amp;#34; , monospace ; font-weight: bold&quot;&gt;public&lt;/span&gt;&lt;span style=&quot;font-family: &amp;#34;menlo&amp;#34; , &amp;#34;monaco&amp;#34; , &amp;#34;consolas&amp;#34; , &amp;#34;andale mono&amp;#34; , &amp;#34;lucida console&amp;#34; , &amp;#34;courier new&amp;#34; , monospace ; background-color: rgb(255 , 255 , 255)&quot;&gt;&amp;nbsp;&lt;/span&gt;&lt;span style=&quot;border: 0px ; margin: 0px ; padding: 0px ; font-family: &amp;#34;menlo&amp;#34; , &amp;#34;monaco&amp;#34; , &amp;#34;consolas&amp;#34; , &amp;#34;andale mono&amp;#34; , &amp;#34;lucida console&amp;#34; , &amp;#34;courier new&amp;#34; , monospace ; font-weight: bold&quot;&gt;enum&lt;/span&gt;&lt;span style=&quot;font-family: &amp;#34;menlo&amp;#34; , &amp;#34;monaco&amp;#34; , &amp;#34;consolas&amp;#34; , &amp;#34;andale mono&amp;#34; , &amp;#34;lucida console&amp;#34; , &amp;#34;courier new&amp;#34; , monospace ; background-color: rgb(255 , 255 , 255)&quot;&gt;&amp;nbsp;RetentionPolicy&amp;nbsp;&lt;/span&gt;&lt;span style=&quot;border: 0px ; margin: 0px ; padding: 0px ; font-family: &amp;#34;menlo&amp;#34; , &amp;#34;monaco&amp;#34; , &amp;#34;consolas&amp;#34; , &amp;#34;andale mono&amp;#34; , &amp;#34;lucida console&amp;#34; , &amp;#34;courier new&amp;#34; , monospace ; color: rgb(0 , 153 , 0)&quot;&gt;{&lt;/span&gt;&lt;br style=&quot;font-family: &amp;#34;menlo&amp;#34; , &amp;#34;monaco&amp;#34; , &amp;#34;consolas&amp;#34; , &amp;#34;andale mono&amp;#34; , &amp;#34;lucida console&amp;#34; , &amp;#34;courier new&amp;#34; , monospace&quot;&gt;&lt;span style=&quot;font-family: &amp;#34;menlo&amp;#34; , &amp;#34;monaco&amp;#34; , &amp;#34;consolas&amp;#34; , &amp;#34;andale mono&amp;#34; , &amp;#34;lucida console&amp;#34; , &amp;#34;courier new&amp;#34; , monospace ; background-color: rgb(255 , 255 , 255)&quot;&gt;&amp;nbsp; &amp;nbsp; SOURCE, &amp;nbsp; &amp;nbsp; &amp;nbsp; &amp;nbsp; &amp;nbsp; &amp;nbsp;&lt;/span&gt;&lt;span style=&quot;border: 0px ; margin: 0px ; padding: 0px ; font-family: &amp;#34;menlo&amp;#34; , &amp;#34;monaco&amp;#34; , &amp;#34;consolas&amp;#34; , &amp;#34;andale mono&amp;#34; , &amp;#34;lucida console&amp;#34; , &amp;#34;courier new&amp;#34; , monospace ; color: rgb(102 , 102 , 102) ; font-style: italic&quot;&gt;/* Annotation信息仅存在于编译器处理期间，编译器处理完之后就没有该Annotation信息了 &amp;nbsp;*/&lt;/span&gt;&lt;br style=&quot;font-family: &amp;#34;menlo&amp;#34; , &amp;#34;monaco&amp;#34; , &amp;#34;consolas&amp;#34; , &amp;#34;andale mono&amp;#34; , &amp;#34;lucida console&amp;#34; , &amp;#34;courier new&amp;#34; , monospace&quot;&gt;&lt;br style=&quot;font-family: &amp;#34;menlo&amp;#34; , &amp;#34;monaco&amp;#34; , &amp;#34;consolas&amp;#34; , &amp;#34;andale mono&amp;#34; , &amp;#34;lucida console&amp;#34; , &amp;#34;courier new&amp;#34; , monospace&quot;&gt;&lt;span style=&quot;font-family: &amp;#34;menlo&amp;#34; , &amp;#34;monaco&amp;#34; , &amp;#34;consolas&amp;#34; , &amp;#34;andale mono&amp;#34; , &amp;#34;lucida console&amp;#34; , &amp;#34;courier new&amp;#34; , monospace ; background-color: rgb(255 , 255 , 255)&quot;&gt;&amp;nbsp; &amp;nbsp;&amp;nbsp;&lt;/span&gt;&lt;span style=&quot;border: 0px ; margin: 0px ; padding: 0px ; font-family: &amp;#34;menlo&amp;#34; , &amp;#34;monaco&amp;#34; , &amp;#34;consolas&amp;#34; , &amp;#34;andale mono&amp;#34; , &amp;#34;lucida console&amp;#34; , &amp;#34;courier new&amp;#34; , monospace ; font-weight: bold&quot;&gt;CLASS&lt;/span&gt;&lt;span style=&quot;font-family: &amp;#34;menlo&amp;#34; , &amp;#34;monaco&amp;#34; , &amp;#34;consolas&amp;#34; , &amp;#34;andale mono&amp;#34; , &amp;#34;lucida console&amp;#34; , &amp;#34;courier new&amp;#34; , monospace ; background-color: rgb(255 , 255 , 255)&quot;&gt;, &amp;nbsp; &amp;nbsp; &amp;nbsp; &amp;nbsp; &amp;nbsp; &amp;nbsp;&amp;nbsp;&lt;/span&gt;&lt;span style=&quot;border: 0px ; margin: 0px ; padding: 0px ; font-family: &amp;#34;menlo&amp;#34; , &amp;#34;monaco&amp;#34; , &amp;#34;consolas&amp;#34; , &amp;#34;andale mono&amp;#34; , &amp;#34;lucida console&amp;#34; , &amp;#34;courier new&amp;#34; , monospace ; color: rgb(102 , 102 , 102) ; font-style: italic&quot;&gt;/* 编译器将Annotation存储于类对应的.class文件中。默认行为 &amp;nbsp;*/&lt;/span&gt;&lt;br style=&quot;font-family: &amp;#34;menlo&amp;#34; , &amp;#34;monaco&amp;#34; , &amp;#34;consolas&amp;#34; , &amp;#34;andale mono&amp;#34; , &amp;#34;lucida console&amp;#34; , &amp;#34;courier new&amp;#34; , monospace&quot;&gt;&lt;br style=&quot;font-family: &amp;#34;menlo&amp;#34; , &amp;#34;monaco&amp;#34; , &amp;#34;consolas&amp;#34; , &amp;#34;andale mono&amp;#34; , &amp;#34;lucida console&amp;#34; , &amp;#34;courier new&amp;#34; , monospace&quot;&gt;&lt;span style=&quot;font-family: &amp;#34;menlo&amp;#34; , &amp;#34;monaco&amp;#34; , &amp;#34;consolas&amp;#34; , &amp;#34;andale mono&amp;#34; , &amp;#34;lucida console&amp;#34; , &amp;#34;courier new&amp;#34; , monospace ; background-color: rgb(255 , 255 , 255)&quot;&gt;&amp;nbsp; &amp;nbsp; RUNTIME &amp;nbsp; &amp;nbsp; &amp;nbsp; &amp;nbsp; &amp;nbsp; &amp;nbsp;&lt;/span&gt;&lt;span style=&quot;border: 0px ; margin: 0px ; padding: 0px ; font-family: &amp;#34;menlo&amp;#34; , &amp;#34;monaco&amp;#34; , &amp;#34;consolas&amp;#34; , &amp;#34;andale mono&amp;#34; , &amp;#34;lucida console&amp;#34; , &amp;#34;courier new&amp;#34; , monospace ; color: rgb(102 , 102 , 102) ; font-style: italic&quot;&gt;/* 编译器将Annotation存储于class文件中，并且可由JVM读入 */&lt;/span&gt;&lt;br style=&quot;font-family: &amp;#34;menlo&amp;#34; , &amp;#34;monaco&amp;#34; , &amp;#34;consolas&amp;#34; , &amp;#34;andale mono&amp;#34; , &amp;#34;lucida console&amp;#34; , &amp;#34;courier new&amp;#34; , monospace&quot;&gt;&lt;span style=&quot;border: 0px ; margin: 0px ; padding: 0px ; font-family: &amp;#34;menlo&amp;#34; , &amp;#34;monaco&amp;#34; , &amp;#34;consolas&amp;#34; , &amp;#34;andale mono&amp;#34; , &amp;#34;lucida console&amp;#34; , &amp;#34;courier new&amp;#34; , monospace ; color: rgb(0 , 153 , 0)&quot;&gt;}&lt;/span&gt;&lt;/font&gt;" style="text;html=1;align=left;verticalAlign=middle;resizable=0;points=[];autosize=1;" vertex="1" parent="1">
          <mxGeometry x="930" y="1080" width="720" height="120" as="geometry" />
        </mxCell>
        <mxCell id="i3K5_ipFbrHlCx1D2kWV-37" value="" style="endArrow=classic;html=1;exitX=1;exitY=0.5;exitDx=0;exitDy=0;entryX=-0.004;entryY=0.594;entryDx=0;entryDy=0;entryPerimeter=0;" edge="1" parent="1" source="i3K5_ipFbrHlCx1D2kWV-23" target="i3K5_ipFbrHlCx1D2kWV-36">
          <mxGeometry width="50" height="50" relative="1" as="geometry">
            <mxPoint x="1310" y="1130" as="sourcePoint" />
            <mxPoint x="1360" y="1080" as="targetPoint" />
          </mxGeometry>
        </mxCell>
        <mxCell id="i3K5_ipFbrHlCx1D2kWV-40" value="" style="edgeStyle=none;rounded=0;orthogonalLoop=1;jettySize=auto;html=1;" edge="1" parent="1" source="i3K5_ipFbrHlCx1D2kWV-38" target="i3K5_ipFbrHlCx1D2kWV-39">
          <mxGeometry relative="1" as="geometry" />
        </mxCell>
        <mxCell id="i3K5_ipFbrHlCx1D2kWV-38" value="示例" style="rounded=1;whiteSpace=wrap;html=1;" vertex="1" parent="1">
          <mxGeometry x="190" y="950" width="120" height="60" as="geometry" />
        </mxCell>
        <mxCell id="i3K5_ipFbrHlCx1D2kWV-39" value="&lt;pre class=&quot;prettyprint prettyprinted&quot; style=&quot;border-width: 1px 1px 1px 4px ; border-style: solid ; border-color: rgb(221 , 221 , 221) ; margin: 15px auto ; padding: 10px 15px ; font-stretch: normal ; line-height: 20px ; font-family: &amp;#34;menlo&amp;#34; , &amp;#34;monaco&amp;#34; , &amp;#34;consolas&amp;#34; , &amp;#34;andale mono&amp;#34; , &amp;#34;lucida console&amp;#34; , &amp;#34;courier new&amp;#34; , monospace ; word-break: break-all ; overflow-wrap: break-word ; background: url(&amp;#34;/images/codecolorer_bg.gif&amp;#34;) center top rgb(251 , 251 , 251) ; color: rgb(51 , 51 , 51)&quot;&gt;&lt;span class=&quot;lit&quot; style=&quot;border: 0px ; margin: 0px ; padding: 0px ; color: rgb(0 , 102 , 102)&quot;&gt;@Documented&lt;/span&gt;&lt;span class=&quot;pln&quot; style=&quot;border: 0px ; margin: 0px ; padding: 0px ; color: rgb(0 , 0 , 0)&quot;&gt;&lt;br&gt;&lt;/span&gt;&lt;span class=&quot;lit&quot; style=&quot;border: 0px ; margin: 0px ; padding: 0px ; color: rgb(0 , 102 , 102)&quot;&gt;@Target&lt;/span&gt;&lt;span class=&quot;pun&quot; style=&quot;border: 0px ; margin: 0px ; padding: 0px ; color: rgb(102 , 102 , 0)&quot;&gt;(&lt;/span&gt;&lt;span class=&quot;typ&quot; style=&quot;border: 0px ; margin: 0px ; padding: 0px ; color: rgb(102 , 0 , 102)&quot;&gt;ElementType&lt;/span&gt;&lt;span class=&quot;pun&quot; style=&quot;border: 0px ; margin: 0px ; padding: 0px ; color: rgb(102 , 102 , 0)&quot;&gt;.&lt;/span&gt;&lt;span class=&quot;pln&quot; style=&quot;border: 0px ; margin: 0px ; padding: 0px ; color: rgb(0 , 0 , 0)&quot;&gt;TYPE&lt;/span&gt;&lt;span class=&quot;pun&quot; style=&quot;border: 0px ; margin: 0px ; padding: 0px ; color: rgb(102 , 102 , 0)&quot;&gt;)&lt;/span&gt;&lt;span class=&quot;pln&quot; style=&quot;border: 0px ; margin: 0px ; padding: 0px ; color: rgb(0 , 0 , 0)&quot;&gt;&lt;br&gt;&lt;/span&gt;&lt;span class=&quot;lit&quot; style=&quot;border: 0px ; margin: 0px ; padding: 0px ; color: rgb(0 , 102 , 102)&quot;&gt;@Retention&lt;/span&gt;&lt;span class=&quot;pun&quot; style=&quot;border: 0px ; margin: 0px ; padding: 0px ; color: rgb(102 , 102 , 0)&quot;&gt;(&lt;/span&gt;&lt;span class=&quot;typ&quot; style=&quot;border: 0px ; margin: 0px ; padding: 0px ; color: rgb(102 , 0 , 102)&quot;&gt;RetentionPolicy&lt;/span&gt;&lt;span class=&quot;pun&quot; style=&quot;border: 0px ; margin: 0px ; padding: 0px ; color: rgb(102 , 102 , 0)&quot;&gt;.&lt;/span&gt;&lt;span class=&quot;pln&quot; style=&quot;border: 0px ; margin: 0px ; padding: 0px ; color: rgb(0 , 0 , 0)&quot;&gt;RUNTIME&lt;/span&gt;&lt;span class=&quot;pun&quot; style=&quot;border: 0px ; margin: 0px ; padding: 0px ; color: rgb(102 , 102 , 0)&quot;&gt;)&lt;/span&gt;&lt;span class=&quot;pln&quot; style=&quot;border: 0px ; margin: 0px ; padding: 0px ; color: rgb(0 , 0 , 0)&quot;&gt;&lt;br&gt;&lt;/span&gt;&lt;span class=&quot;kwd&quot; style=&quot;border: 0px ; margin: 0px ; padding: 0px ; color: rgb(0 , 0 , 136)&quot;&gt;public&lt;/span&gt;&lt;span class=&quot;pln&quot; style=&quot;border: 0px ; margin: 0px ; padding: 0px ; color: rgb(0 , 0 , 0)&quot;&gt; &lt;/span&gt;&lt;span class=&quot;lit&quot; style=&quot;border: 0px ; margin: 0px ; padding: 0px ; color: rgb(0 , 102 , 102)&quot;&gt;@interface&lt;/span&gt;&lt;span class=&quot;pln&quot; style=&quot;border: 0px ; margin: 0px ; padding: 0px ; color: rgb(0 , 0 , 0)&quot;&gt; &lt;/span&gt;&lt;span class=&quot;typ&quot; style=&quot;border: 0px ; margin: 0px ; padding: 0px ; color: rgb(102 , 0 , 102)&quot;&gt;MyAnnotation1&lt;/span&gt;&lt;span class=&quot;pln&quot; style=&quot;border: 0px ; margin: 0px ; padding: 0px ; color: rgb(0 , 0 , 0)&quot;&gt; &lt;/span&gt;&lt;span class=&quot;pun&quot; style=&quot;border: 0px ; margin: 0px ; padding: 0px ; color: rgb(102 , 102 , 0)&quot;&gt;{&lt;/span&gt;&lt;span class=&quot;pln&quot; style=&quot;border: 0px ; margin: 0px ; padding: 0px ; color: rgb(0 , 0 , 0)&quot;&gt;&lt;br&gt;&lt;/span&gt;&lt;span class=&quot;pun&quot; style=&quot;border: 0px ; margin: 0px ; padding: 0px ; color: rgb(102 , 102 , 0)&quot;&gt;}&lt;/span&gt;&lt;/pre&gt;" style="rounded=1;whiteSpace=wrap;html=1;align=left;" vertex="1" parent="1">
          <mxGeometry x="190" y="1075" width="340" height="140" as="geometry" />
        </mxCell>
        <mxCell id="i3K5_ipFbrHlCx1D2kWV-41" value="" style="endArrow=classic;html=1;exitX=0.142;exitY=0.983;exitDx=0;exitDy=0;exitPerimeter=0;" edge="1" parent="1" source="i3K5_ipFbrHlCx1D2kWV-18" target="i3K5_ipFbrHlCx1D2kWV-38">
          <mxGeometry width="50" height="50" relative="1" as="geometry">
            <mxPoint x="560" y="970" as="sourcePoint" />
            <mxPoint x="610" y="920" as="targetPoint" />
          </mxGeometry>
        </mxCell>
        <mxCell id="i3K5_ipFbrHlCx1D2kWV-42" value="怎么使用这三个主干类呢" style="text;html=1;align=center;verticalAlign=middle;resizable=0;points=[];autosize=1;" vertex="1" parent="1">
          <mxGeometry x="295" y="840" width="150" height="20" as="geometry" />
        </mxCell>
        <mxCell id="i3K5_ipFbrHlCx1D2kWV-43" value="" style="endArrow=classic;html=1;exitX=0.335;exitY=1;exitDx=0;exitDy=0;exitPerimeter=0;" edge="1" parent="1" source="i3K5_ipFbrHlCx1D2kWV-39" target="i3K5_ipFbrHlCx1D2kWV-44">
          <mxGeometry width="50" height="50" relative="1" as="geometry">
            <mxPoint x="290" y="1280" as="sourcePoint" />
            <mxPoint x="450" y="1300" as="targetPoint" />
          </mxGeometry>
        </mxCell>
        <mxCell id="i3K5_ipFbrHlCx1D2kWV-44" value="@Target 指定了ElementType.属性&lt;br&gt;@Retention指定了RetentionPolicy的属性" style="rounded=0;whiteSpace=wrap;html=1;align=left;" vertex="1" parent="1">
          <mxGeometry x="414" y="1300" width="256" height="60" as="geometry" />
        </mxCell>
        <mxCell id="i3K5_ipFbrHlCx1D2kWV-45" value="" style="endArrow=classic;html=1;" edge="1" parent="1">
          <mxGeometry width="50" height="50" relative="1" as="geometry">
            <mxPoint x="410" y="1320" as="sourcePoint" />
            <mxPoint x="270" y="1540" as="targetPoint" />
          </mxGeometry>
        </mxCell>
        <mxCell id="i3K5_ipFbrHlCx1D2kWV-46" value="那还有什么呢" style="edgeLabel;html=1;align=center;verticalAlign=middle;resizable=0;points=[];" vertex="1" connectable="0" parent="i3K5_ipFbrHlCx1D2kWV-45">
          <mxGeometry x="-0.1388" y="-3" relative="1" as="geometry">
            <mxPoint as="offset" />
          </mxGeometry>
        </mxCell>
        <mxCell id="i3K5_ipFbrHlCx1D2kWV-48" value="系统常用的相关注解" style="edgeLabel;html=1;align=center;verticalAlign=middle;resizable=0;points=[];" vertex="1" connectable="0" parent="i3K5_ipFbrHlCx1D2kWV-45">
          <mxGeometry x="0.4824" y="-4" relative="1" as="geometry">
            <mxPoint as="offset" />
          </mxGeometry>
        </mxCell>
        <mxCell id="i3K5_ipFbrHlCx1D2kWV-47" value="&lt;pre class=&quot;prettyprint prettyprinted&quot; style=&quot;border-width: 1px 1px 1px 4px ; border-style: solid ; border-color: rgb(221 , 221 , 221) ; margin: 15px auto ; padding: 10px 15px ; font-stretch: normal ; line-height: 20px ; font-family: &amp;#34;menlo&amp;#34; , &amp;#34;monaco&amp;#34; , &amp;#34;consolas&amp;#34; , &amp;#34;andale mono&amp;#34; , &amp;#34;lucida console&amp;#34; , &amp;#34;courier new&amp;#34; , monospace ; word-break: break-all ; overflow-wrap: break-word ; background: url(&amp;#34;/images/codecolorer_bg.gif&amp;#34;) center top rgb(251 , 251 , 251) ; color: rgb(51 , 51 , 51)&quot;&gt;&lt;span class=&quot;lit&quot; style=&quot;border: 0px ; margin: 0px ; padding: 0px ; color: rgb(0 , 102 , 102)&quot;&gt;@Deprecated&lt;/span&gt;&lt;span class=&quot;pln&quot; style=&quot;border: 0px ; margin: 0px ; padding: 0px ; color: rgb(0 , 0 , 0)&quot;&gt;  &lt;/span&gt;&lt;span class=&quot;pun&quot; style=&quot;border: 0px ; margin: 0px ; padding: 0px ; color: rgb(102 , 102 , 0)&quot;&gt;--&lt;/span&gt;&lt;span class=&quot;pln&quot; style=&quot;border: 0px ; margin: 0px ; padding: 0px ; color: rgb(0 , 0 , 0)&quot;&gt; &lt;/span&gt;&lt;span class=&quot;lit&quot; style=&quot;border: 0px ; margin: 0px ; padding: 0px ; color: rgb(0 , 102 , 102)&quot;&gt;@Deprecated&lt;/span&gt;&lt;span class=&quot;pln&quot; style=&quot;border: 0px ; margin: 0px ; padding: 0px ; color: rgb(0 , 0 , 0)&quot;&gt; &lt;/span&gt;&lt;span class=&quot;pun&quot; style=&quot;border: 0px ; margin: 0px ; padding: 0px ; color: rgb(102 , 102 , 0)&quot;&gt;所标注内容，不再被建议使用。&lt;/span&gt;&lt;span class=&quot;pln&quot; style=&quot;border: 0px ; margin: 0px ; padding: 0px ; color: rgb(0 , 0 , 0)&quot;&gt;&lt;br&gt;&lt;/span&gt;&lt;span class=&quot;lit&quot; style=&quot;border: 0px ; margin: 0px ; padding: 0px ; color: rgb(0 , 102 , 102)&quot;&gt;@Override&lt;/span&gt;&lt;span class=&quot;pln&quot; style=&quot;border: 0px ; margin: 0px ; padding: 0px ; color: rgb(0 , 0 , 0)&quot;&gt;    &lt;/span&gt;&lt;span class=&quot;pun&quot; style=&quot;border: 0px ; margin: 0px ; padding: 0px ; color: rgb(102 , 102 , 0)&quot;&gt;--&lt;/span&gt;&lt;span class=&quot;pln&quot; style=&quot;border: 0px ; margin: 0px ; padding: 0px ; color: rgb(0 , 0 , 0)&quot;&gt; &lt;/span&gt;&lt;span class=&quot;lit&quot; style=&quot;border: 0px ; margin: 0px ; padding: 0px ; color: rgb(0 , 102 , 102)&quot;&gt;@Override&lt;/span&gt;&lt;span class=&quot;pln&quot; style=&quot;border: 0px ; margin: 0px ; padding: 0px ; color: rgb(0 , 0 , 0)&quot;&gt; &lt;/span&gt;&lt;span class=&quot;pun&quot; style=&quot;border: 0px ; margin: 0px ; padding: 0px ; color: rgb(102 , 102 , 0)&quot;&gt;只能标注方法，表示该方法覆盖父类中的方法。&lt;/span&gt;&lt;span class=&quot;pln&quot; style=&quot;border: 0px ; margin: 0px ; padding: 0px ; color: rgb(0 , 0 , 0)&quot;&gt;&lt;br&gt;&lt;/span&gt;&lt;span class=&quot;lit&quot; style=&quot;border: 0px ; margin: 0px ; padding: 0px ; color: rgb(0 , 102 , 102)&quot;&gt;@Documented&lt;/span&gt;&lt;span class=&quot;pln&quot; style=&quot;border: 0px ; margin: 0px ; padding: 0px ; color: rgb(0 , 0 , 0)&quot;&gt;  &lt;/span&gt;&lt;span class=&quot;pun&quot; style=&quot;border: 0px ; margin: 0px ; padding: 0px ; color: rgb(102 , 102 , 0)&quot;&gt;--&lt;/span&gt;&lt;span class=&quot;pln&quot; style=&quot;border: 0px ; margin: 0px ; padding: 0px ; color: rgb(0 , 0 , 0)&quot;&gt; &lt;/span&gt;&lt;span class=&quot;lit&quot; style=&quot;border: 0px ; margin: 0px ; padding: 0px ; color: rgb(0 , 102 , 102)&quot;&gt;@Documented&lt;/span&gt;&lt;span class=&quot;pln&quot; style=&quot;border: 0px ; margin: 0px ; padding: 0px ; color: rgb(0 , 0 , 0)&quot;&gt; &lt;/span&gt;&lt;span class=&quot;pun&quot; style=&quot;border: 0px ; margin: 0px ; padding: 0px ; color: rgb(102 , 102 , 0)&quot;&gt;所标注内容，可以出现在&lt;/span&gt;&lt;span class=&quot;pln&quot; style=&quot;border: 0px ; margin: 0px ; padding: 0px ; color: rgb(0 , 0 , 0)&quot;&gt;javadoc&lt;/span&gt;&lt;span class=&quot;pun&quot; style=&quot;border: 0px ; margin: 0px ; padding: 0px ; color: rgb(102 , 102 , 0)&quot;&gt;中。&lt;/span&gt;&lt;span class=&quot;pln&quot; style=&quot;border: 0px ; margin: 0px ; padding: 0px ; color: rgb(0 , 0 , 0)&quot;&gt;&lt;br&gt;&lt;/span&gt;&lt;span class=&quot;lit&quot; style=&quot;border: 0px ; margin: 0px ; padding: 0px ; color: rgb(0 , 102 , 102)&quot;&gt;@Inherited&lt;/span&gt;&lt;span class=&quot;pln&quot; style=&quot;border: 0px ; margin: 0px ; padding: 0px ; color: rgb(0 , 0 , 0)&quot;&gt;   &lt;/span&gt;&lt;span class=&quot;pun&quot; style=&quot;border: 0px ; margin: 0px ; padding: 0px ; color: rgb(102 , 102 , 0)&quot;&gt;--&lt;/span&gt;&lt;span class=&quot;pln&quot; style=&quot;border: 0px ; margin: 0px ; padding: 0px ; color: rgb(0 , 0 , 0)&quot;&gt; &lt;/span&gt;&lt;span class=&quot;lit&quot; style=&quot;border: 0px ; margin: 0px ; padding: 0px ; color: rgb(0 , 102 , 102)&quot;&gt;@Inherited&lt;/span&gt;&lt;span class=&quot;pun&quot; style=&quot;border: 0px ; margin: 0px ; padding: 0px ; color: rgb(102 , 102 , 0)&quot;&gt;只能被用来标注“&lt;/span&gt;&lt;span class=&quot;typ&quot; style=&quot;border: 0px ; margin: 0px ; padding: 0px ; color: rgb(102 , 0 , 102)&quot;&gt;Annotation&lt;/span&gt;&lt;span class=&quot;pun&quot; style=&quot;border: 0px ; margin: 0px ; padding: 0px ; color: rgb(102 , 102 , 0)&quot;&gt;类型”，它所标注的&lt;/span&gt;&lt;span class=&quot;typ&quot; style=&quot;border: 0px ; margin: 0px ; padding: 0px ; color: rgb(102 , 0 , 102)&quot;&gt;Annotation&lt;/span&gt;&lt;span class=&quot;pun&quot; style=&quot;border: 0px ; margin: 0px ; padding: 0px ; color: rgb(102 , 102 , 0)&quot;&gt;具有继承性。&lt;/span&gt;&lt;span class=&quot;pln&quot; style=&quot;border: 0px ; margin: 0px ; padding: 0px ; color: rgb(0 , 0 , 0)&quot;&gt;&lt;br&gt;&lt;/span&gt;&lt;span class=&quot;lit&quot; style=&quot;border: 0px ; margin: 0px ; padding: 0px ; color: rgb(0 , 102 , 102)&quot;&gt;@Retention&lt;/span&gt;&lt;span class=&quot;pln&quot; style=&quot;border: 0px ; margin: 0px ; padding: 0px ; color: rgb(0 , 0 , 0)&quot;&gt;   &lt;/span&gt;&lt;span class=&quot;pun&quot; style=&quot;border: 0px ; margin: 0px ; padding: 0px ; color: rgb(102 , 102 , 0)&quot;&gt;--&lt;/span&gt;&lt;span class=&quot;pln&quot; style=&quot;border: 0px ; margin: 0px ; padding: 0px ; color: rgb(0 , 0 , 0)&quot;&gt; &lt;/span&gt;&lt;span class=&quot;lit&quot; style=&quot;border: 0px ; margin: 0px ; padding: 0px ; color: rgb(0 , 102 , 102)&quot;&gt;@Retention&lt;/span&gt;&lt;span class=&quot;pun&quot; style=&quot;border: 0px ; margin: 0px ; padding: 0px ; color: rgb(102 , 102 , 0)&quot;&gt;只能被用来标注“&lt;/span&gt;&lt;span class=&quot;typ&quot; style=&quot;border: 0px ; margin: 0px ; padding: 0px ; color: rgb(102 , 0 , 102)&quot;&gt;Annotation&lt;/span&gt;&lt;span class=&quot;pun&quot; style=&quot;border: 0px ; margin: 0px ; padding: 0px ; color: rgb(102 , 102 , 0)&quot;&gt;类型”，而且它被用来指定&lt;/span&gt;&lt;span class=&quot;typ&quot; style=&quot;border: 0px ; margin: 0px ; padding: 0px ; color: rgb(102 , 0 , 102)&quot;&gt;Annotation&lt;/span&gt;&lt;span class=&quot;pun&quot; style=&quot;border: 0px ; margin: 0px ; padding: 0px ; color: rgb(102 , 102 , 0)&quot;&gt;的&lt;/span&gt;&lt;span class=&quot;typ&quot; style=&quot;border: 0px ; margin: 0px ; padding: 0px ; color: rgb(102 , 0 , 102)&quot;&gt;RetentionPolicy&lt;/span&gt;&lt;span class=&quot;pun&quot; style=&quot;border: 0px ; margin: 0px ; padding: 0px ; color: rgb(102 , 102 , 0)&quot;&gt;属性。&lt;/span&gt;&lt;span class=&quot;pln&quot; style=&quot;border: 0px ; margin: 0px ; padding: 0px ; color: rgb(0 , 0 , 0)&quot;&gt;&lt;br&gt;&lt;/span&gt;&lt;span class=&quot;lit&quot; style=&quot;border: 0px ; margin: 0px ; padding: 0px ; color: rgb(0 , 102 , 102)&quot;&gt;@Target&lt;/span&gt;&lt;span class=&quot;pln&quot; style=&quot;border: 0px ; margin: 0px ; padding: 0px ; color: rgb(0 , 0 , 0)&quot;&gt;      &lt;/span&gt;&lt;span class=&quot;pun&quot; style=&quot;border: 0px ; margin: 0px ; padding: 0px ; color: rgb(102 , 102 , 0)&quot;&gt;--&lt;/span&gt;&lt;span class=&quot;pln&quot; style=&quot;border: 0px ; margin: 0px ; padding: 0px ; color: rgb(0 , 0 , 0)&quot;&gt; &lt;/span&gt;&lt;span class=&quot;lit&quot; style=&quot;border: 0px ; margin: 0px ; padding: 0px ; color: rgb(0 , 102 , 102)&quot;&gt;@Target&lt;/span&gt;&lt;span class=&quot;pun&quot; style=&quot;border: 0px ; margin: 0px ; padding: 0px ; color: rgb(102 , 102 , 0)&quot;&gt;只能被用来标注“&lt;/span&gt;&lt;span class=&quot;typ&quot; style=&quot;border: 0px ; margin: 0px ; padding: 0px ; color: rgb(102 , 0 , 102)&quot;&gt;Annotation&lt;/span&gt;&lt;span class=&quot;pun&quot; style=&quot;border: 0px ; margin: 0px ; padding: 0px ; color: rgb(102 , 102 , 0)&quot;&gt;类型”，而且它被用来指定&lt;/span&gt;&lt;span class=&quot;typ&quot; style=&quot;border: 0px ; margin: 0px ; padding: 0px ; color: rgb(102 , 0 , 102)&quot;&gt;Annotation&lt;/span&gt;&lt;span class=&quot;pun&quot; style=&quot;border: 0px ; margin: 0px ; padding: 0px ; color: rgb(102 , 102 , 0)&quot;&gt;的&lt;/span&gt;&lt;span class=&quot;typ&quot; style=&quot;border: 0px ; margin: 0px ; padding: 0px ; color: rgb(102 , 0 , 102)&quot;&gt;ElementType&lt;/span&gt;&lt;span class=&quot;pun&quot; style=&quot;border: 0px ; margin: 0px ; padding: 0px ; color: rgb(102 , 102 , 0)&quot;&gt;属性。&lt;/span&gt;&lt;span class=&quot;pln&quot; style=&quot;border: 0px ; margin: 0px ; padding: 0px ; color: rgb(0 , 0 , 0)&quot;&gt;&lt;br&gt;&lt;/span&gt;&lt;span class=&quot;lit&quot; style=&quot;border: 0px ; margin: 0px ; padding: 0px ; color: rgb(0 , 102 , 102)&quot;&gt;@SuppressWarnings&lt;/span&gt;&lt;span class=&quot;pln&quot; style=&quot;border: 0px ; margin: 0px ; padding: 0px ; color: rgb(0 , 0 , 0)&quot;&gt; &lt;/span&gt;&lt;span class=&quot;pun&quot; style=&quot;border: 0px ; margin: 0px ; padding: 0px ; color: rgb(102 , 102 , 0)&quot;&gt;--&lt;/span&gt;&lt;span class=&quot;pln&quot; style=&quot;border: 0px ; margin: 0px ; padding: 0px ; color: rgb(0 , 0 , 0)&quot;&gt; &lt;/span&gt;&lt;span class=&quot;lit&quot; style=&quot;border: 0px ; margin: 0px ; padding: 0px ; color: rgb(0 , 102 , 102)&quot;&gt;@SuppressWarnings&lt;/span&gt;&lt;span class=&quot;pln&quot; style=&quot;border: 0px ; margin: 0px ; padding: 0px ; color: rgb(0 , 0 , 0)&quot;&gt; &lt;/span&gt;&lt;span class=&quot;pun&quot; style=&quot;border: 0px ; margin: 0px ; padding: 0px ; color: rgb(102 , 102 , 0)&quot;&gt;所标注内容产生的警告，编译器会对这些警告保持静默。&lt;/span&gt;&lt;/pre&gt;" style="rounded=0;whiteSpace=wrap;html=1;align=left;" vertex="1" parent="1">
          <mxGeometry x="190" y="1540" width="810" height="200" as="geometry" />
        </mxCell>
        <mxCell id="i3K5_ipFbrHlCx1D2kWV-49" value="&lt;div&gt;public static void iteratorAnnotations(Method method) {&lt;/div&gt;&lt;div&gt;&lt;br&gt;&lt;/div&gt;&lt;div&gt;&amp;nbsp; &amp;nbsp; // 判断 somebody() 方法是否包含MyAnnotation注解&lt;/div&gt;&lt;div&gt;&amp;nbsp; &amp;nbsp; if(method.isAnnotationPresent(MyAnnotation.class)){&lt;/div&gt;&lt;div&gt;&amp;nbsp; &amp;nbsp; &amp;nbsp; // 获取该方法的MyAnnotation注解实例&lt;/div&gt;&lt;div&gt;&amp;nbsp; &amp;nbsp; &amp;nbsp; MyAnnotation myAnnotation = method.getAnnotation(MyAnnotation.class);&lt;/div&gt;&lt;div&gt;&amp;nbsp; &amp;nbsp; &amp;nbsp; // 获取 myAnnotation的值，并打印出来&lt;/div&gt;&lt;div&gt;&amp;nbsp; &amp;nbsp; &amp;nbsp; String[] values = myAnnotation.value();&lt;/div&gt;&lt;div&gt;&amp;nbsp; &amp;nbsp; &amp;nbsp; for (String str:values)&lt;/div&gt;&lt;div&gt;&amp;nbsp; &amp;nbsp; &amp;nbsp; &amp;nbsp; System.out.printf(str+&quot;, &quot;);&lt;/div&gt;&lt;div&gt;&amp;nbsp; &amp;nbsp; &amp;nbsp; System.out.println();&lt;/div&gt;&lt;div&gt;&amp;nbsp; &amp;nbsp; }&lt;/div&gt;&lt;div&gt;}&lt;/div&gt;" style="rounded=0;whiteSpace=wrap;html=1;align=left;" vertex="1" parent="1">
          <mxGeometry x="490" y="1890" width="420" height="210" as="geometry" />
        </mxCell>
        <mxCell id="i3K5_ipFbrHlCx1D2kWV-50" value="" style="endArrow=classic;html=1;exitX=0.25;exitY=1;exitDx=0;exitDy=0;entryX=0.25;entryY=0;entryDx=0;entryDy=0;" edge="1" parent="1" source="i3K5_ipFbrHlCx1D2kWV-47" target="i3K5_ipFbrHlCx1D2kWV-49">
          <mxGeometry relative="1" as="geometry">
            <mxPoint x="610" y="1850" as="sourcePoint" />
            <mxPoint x="710" y="1850" as="targetPoint" />
          </mxGeometry>
        </mxCell>
        <mxCell id="i3K5_ipFbrHlCx1D2kWV-52" value="获取方法并打出相关值" style="edgeLabel;html=1;align=center;verticalAlign=middle;resizable=0;points=[];" vertex="1" connectable="0" parent="i3K5_ipFbrHlCx1D2kWV-50">
          <mxGeometry x="0.0494" relative="1" as="geometry">
            <mxPoint as="offset" />
          </mxGeometry>
        </mxCell>
        <mxCell id="i3K5_ipFbrHlCx1D2kWV-53" value="使用" style="edgeLabel;html=1;align=center;verticalAlign=middle;resizable=0;points=[];" vertex="1" connectable="0" parent="i3K5_ipFbrHlCx1D2kWV-50">
          <mxGeometry x="-0.4963" y="-3" relative="1" as="geometry">
            <mxPoint x="-1" as="offset" />
          </mxGeometry>
        </mxCell>
      </root>
    </mxGraphModel>
  </diagram>
</mxfile>
